<svg xmlns="http://www.w3.org/2000/svg" xmlns:cc="http://creativecommons.org/ns#" xmlns:dc="http://purl.org/dc/elements/1.1/" xmlns:inkscape="http://www.inkscape.org/namespaces/inkscape" xmlns:rdf="http://www.w3.org/1999/02/22-rdf-syntax-ns#" xmlns:sodipodi="http://sodipodi.sourceforge.net/DTD/sodipodi-0.dtd"  height="600mm" id="svg4658" version="1.1" viewBox="0 0 2125.984375 2125.984130859375" width="600mm" xmlns:xlink="http://www.w3.org/1999/xlink"><rect id="svgEditorBackground" x="0" y="0" width="2125.984375" height="2125.984130859375" style="fill:none;stroke:none;"/><defs id="defs4660"/><g id="layer1" transform="translate(0,1073.6222)"><path d="M1064.559,-1054.6699c-15.23129999999992,-0.08999999999991815,-26.852300000000014,9.029399999999896,-39.62670000000003,17.32490000000007c-274.57683999999995,178.30798000000004,-748.5434,538.51938,-912.7722,664.35008c-18.019954999999996,13.806590000000028,-27.690112999999997,27.74675000000002,-32.879925,38.38096999999999c-15.844493,24.809019999999975,-25.134267,55.08985999999999,-25.134267,87.84933000000001l2023.489192,0c0,-36.75722999999999,-11.695099999999911,-70.39722,-31.223700000000008,-96.68414000000001c-7.410200000000032,-10.64661000000001,-17.19769999999994,-21.82853,-29.957200000000057,-31.509869999999978c-167.6319000000001,-127.19288,-639.924,-482.93724,-912.4966999999999,-661.8987699999999c-12.745599999999968,-8.368199999999888,-24.151499999999942,-17.722600000000057,-39.39850000000001,-17.8125Z" id="path4265" style="opacity:1;fill:#ebeae3;fill-opacity:1;stroke:none;stroke-width:1;stroke-miterlimit:4;stroke-dasharray:none;stroke-opacity:1"/></g></svg>